<svg width="9599" height="1472" viewBox="0 0 9599 1472" fill="none" xmlns="http://www.w3.org/2000/svg">
<path d="M1088 493C1061.02 216.268 827.758 0 544 0C260.242 0 26.9849 216.268 0 493H300.187C324.757 380.938 424.586 297.064 544 297.064C663.414 297.064 763.243 380.938 787.812 493H1088Z" fill="#D30A40"/>
<path fill-rule="evenodd" clip-rule="evenodd" d="M544.179 720.206C640.13 720.206 717.913 642.423 717.913 546.472C717.913 450.522 640.13 372.738 544.179 372.738C448.229 372.738 370.445 450.522 370.445 546.472C370.445 642.423 448.229 720.206 544.179 720.206ZM787.932 600.172H1088.05C1088.05 979.228 544.179 1472 544.179 1472C544.179 1472 0.312012 972.91 0.312012 600.172H300.426C324.99 712.182 424.794 796.017 544.179 796.017C663.564 796.017 763.368 712.182 787.932 600.172Z" fill="#DEE2ED"/>
<path d="M1439 1345.18V59H1994.31C2089.8 59 2173.35 77.8406 2244.96 115.522C2316.57 153.203 2372.27 206.166 2412.06 274.411C2451.84 342.655 2471.73 422.414 2471.73 513.686C2471.73 605.796 2451.21 685.554 2410.17 752.961C2369.55 820.369 2312.39 872.285 2238.68 908.71C2165.39 945.135 2079.75 963.348 1981.75 963.348H1650.07V692.044H1911.39C1952.44 692.044 1987.4 684.926 2016.3 670.691C2045.62 656.037 2068.02 635.312 2083.52 608.517C2099.43 581.721 2107.39 550.111 2107.39 513.686C2107.39 476.842 2099.43 445.441 2083.52 419.483C2068.02 393.106 2045.62 373.01 2016.3 359.193C1987.4 344.958 1952.44 337.841 1911.39 337.841H1788.27V1345.18H1439Z" fill="#DEE2ED"/>
<path d="M2951.31 1359C2869.05 1359 2798.63 1342.72 2740.06 1310.15C2681.49 1277.25 2636.57 1231.53 2605.31 1172.97C2574.05 1114.09 2558.42 1045.83 2558.42 968.193C2558.42 890.557 2574.05 822.462 2605.31 763.907C2636.57 705.023 2681.49 659.297 2740.06 626.729C2798.63 593.833 2869.05 577.385 2951.31 577.385C3033.57 577.385 3103.99 593.833 3162.56 626.729C3221.13 659.297 3266.04 705.023 3297.3 763.907C3328.56 822.462 3344.19 890.557 3344.19 968.193C3344.19 1045.83 3328.56 1114.09 3297.3 1172.97C3266.04 1231.53 3221.13 1277.25 3162.56 1310.15C3103.99 1342.72 3033.57 1359 2951.31 1359ZM2953.28 1157.67C2976.32 1157.67 2996.22 1149.94 3013.01 1134.48C3029.79 1119.02 3042.78 1096.98 3052 1068.36C3061.21 1039.74 3065.82 1005.69 3065.82 966.219C3065.82 926.414 3061.21 892.367 3052 864.076C3042.78 835.456 3029.79 813.416 3013.01 797.954C2996.22 782.493 2976.32 774.763 2953.28 774.763C2928.93 774.763 2908.04 782.493 2890.6 797.954C2873.16 813.416 2859.83 835.456 2850.62 864.076C2841.41 892.367 2836.8 926.414 2836.8 966.219C2836.8 1005.69 2841.41 1039.74 2850.62 1068.36C2859.83 1096.98 2873.16 1119.02 2890.6 1134.48C2908.04 1149.94 2928.93 1157.67 2953.28 1157.67Z" fill="#DEE2ED"/>
<path d="M3699.57 1165.57L3701.54 841.871H3737.08L3920.69 587.254H4226.7L3918.71 983.983H3841.71L3699.57 1165.57ZM3454.75 1345.18V334.611H3727.21V1345.18H3454.75ZM3922.66 1345.18L3748.92 1045.17L3926.61 851.74L4234.6 1345.18H3922.66Z" fill="#DEE2ED"/>
<path d="M4629.7 1359C4548.76 1359 4479 1343.54 4420.43 1312.62C4362.19 1281.36 4317.27 1236.63 4285.68 1178.4C4254.42 1119.84 4238.79 1049.78 4238.79 968.193C4238.79 889.899 4254.59 821.475 4286.18 762.92C4317.77 704.365 4362.35 658.803 4419.94 626.236C4477.52 593.669 4545.47 577.385 4623.78 577.385C4681.04 577.385 4732.86 586.267 4779.26 604.031C4825.65 621.795 4865.3 647.619 4898.21 681.502C4931.11 715.056 4956.45 755.847 4974.22 803.876C4991.99 851.904 5000.87 906.019 5000.87 966.219V1029.38H4323.69V879.373H4750.14C4749.81 857.661 4744.21 838.581 4733.35 822.133C4722.83 805.356 4708.51 792.362 4690.41 783.151C4672.65 773.611 4652.41 768.841 4629.7 768.841C4607.66 768.841 4587.42 773.611 4568.99 783.151C4550.57 792.362 4535.76 805.192 4524.57 821.64C4513.71 838.088 4507.96 857.332 4507.3 879.373V1041.22C4507.3 1065.57 4512.4 1087.28 4522.6 1106.36C4532.8 1125.44 4547.44 1140.4 4566.53 1151.26C4585.61 1162.12 4608.65 1167.54 4635.63 1167.54C4654.38 1167.54 4671.49 1164.91 4686.96 1159.65C4702.75 1154.39 4716.24 1146.82 4727.43 1136.95C4738.62 1126.75 4746.85 1114.58 4752.11 1100.44H5000.87C4992.32 1153.07 4972.08 1198.8 4940.16 1237.61C4908.24 1276.1 4865.96 1306.04 4813.31 1327.42C4760.99 1348.47 4699.79 1359 4629.7 1359ZM4529.02 492.513L4623.78 271.45H4856.75L4708.68 492.513H4529.02Z" fill="#DEE2ED"/>
<path d="M5116.98 1345.18V196.805H5924.65V448.013H5428.83V645.391H5875.29V896.598H5428.83V1345.18H5116.98Z" fill="#DEE2ED"/>
<path d="M6034.41 1345.18V587.254H6306.87V1345.18H6034.41ZM6170.64 508.303C6133.79 508.303 6102.2 496.131 6075.87 471.788C6049.55 447.445 6036.39 418.167 6036.39 383.955C6036.39 349.743 6049.55 320.465 6075.87 296.122C6102.2 271.779 6133.79 259.607 6170.64 259.607C6207.82 259.607 6239.41 271.779 6265.41 296.122C6291.73 320.465 6304.89 349.743 6304.89 383.955C6304.89 418.167 6291.73 447.445 6265.41 471.788C6239.41 496.131 6207.82 508.303 6170.64 508.303Z" fill="#DEE2ED"/>
<path d="M6718.14 918.848V1345.18H6445.68V587.254H6704.32V731.34H6712.21C6728.67 683.311 6757.62 645.645 6799.08 618.341C6840.87 591.037 6889.57 577.385 6945.18 577.385C6998.81 577.385 7045.38 589.721 7084.86 614.393C7124.68 638.737 7155.44 672.291 7177.16 715.056C7199.21 757.821 7210.06 806.672 7209.74 861.609V1345.18H6937.28V918.848C6937.61 881.346 6928.07 851.904 6908.66 830.522C6889.57 809.139 6862.92 798.448 6828.7 798.448C6806.32 798.448 6786.74 803.382 6769.96 813.251C6753.51 822.791 6740.84 836.608 6731.96 854.701C6723.07 872.464 6718.47 893.847 6718.14 918.848Z" fill="#DEE2ED"/>
<path d="M7618.66 1355.05C7564.7 1355.05 7515.01 1340.91 7469.6 1312.62C7424.52 1284.33 7388.33 1241.4 7361.02 1183.83C7334.03 1126.26 7320.54 1053.72 7320.54 966.219C7320.54 874.767 7334.69 800.422 7362.99 743.182C7391.62 685.943 7428.47 644 7473.55 617.354C7518.96 590.708 7566.67 577.385 7616.69 577.385C7654.2 577.385 7687.1 583.964 7715.4 597.123C7743.7 609.952 7767.39 627.223 7786.48 648.934C7805.56 670.317 7820.04 693.838 7829.91 719.497H7833.86V334.611H8106.31V1345.18H7835.83V1220.84H7829.91C7819.38 1246.49 7804.24 1269.52 7784.5 1289.92C7765.09 1309.98 7741.4 1325.94 7713.43 1337.78C7685.79 1349.3 7654.2 1355.05 7618.66 1355.05ZM7719.35 1145.83C7744.36 1145.83 7765.75 1138.6 7783.51 1124.12C7801.61 1109.32 7815.43 1088.59 7824.97 1061.95C7834.85 1034.97 7839.78 1003.06 7839.78 966.219C7839.78 928.717 7834.85 896.643 7824.97 869.997C7815.43 843.022 7801.61 822.462 7783.51 808.317C7765.75 793.842 7744.36 786.605 7719.35 786.605C7694.34 786.605 7672.95 793.842 7655.18 808.317C7637.75 822.462 7624.25 843.022 7614.71 869.997C7605.5 896.643 7600.89 928.717 7600.89 966.219C7600.89 1003.72 7605.5 1035.96 7614.71 1062.93C7624.25 1089.58 7637.75 1110.14 7655.18 1124.61C7672.95 1138.76 7694.34 1145.83 7719.35 1145.83Z" fill="#DEE2ED"/>
<path d="M8603.34 1359C8522.39 1359 8452.63 1343.54 8394.06 1312.62C8335.82 1281.36 8290.91 1236.63 8259.32 1178.4C8228.06 1119.84 8212.43 1049.78 8212.43 968.193C8212.43 889.899 8228.22 821.475 8259.81 762.92C8291.4 704.365 8335.99 658.803 8393.57 626.236C8451.15 593.669 8519.1 577.385 8597.42 577.385C8654.67 577.385 8706.5 586.267 8752.89 604.031C8799.29 621.795 8838.94 647.619 8871.84 681.502C8904.75 715.056 8930.08 755.847 8947.85 803.876C8965.62 851.904 8974.51 906.019 8974.51 966.219V1029.38H8297.32V879.373H8723.77C8723.44 857.661 8717.85 838.581 8706.99 822.133C8696.46 805.356 8682.15 792.362 8664.05 783.151C8646.28 773.611 8626.04 768.841 8603.34 768.841C8581.29 768.841 8561.06 773.611 8542.63 783.151C8524.2 792.362 8509.4 805.192 8498.21 821.64C8487.35 838.088 8481.59 857.332 8480.93 879.373V1041.22C8480.93 1065.57 8486.03 1087.28 8496.23 1106.36C8506.43 1125.44 8521.08 1140.4 8540.16 1151.26C8559.25 1162.12 8582.28 1167.54 8609.26 1167.54C8628.02 1167.54 8645.13 1164.91 8660.59 1159.65C8676.39 1154.39 8689.88 1146.82 8701.07 1136.95C8712.25 1126.75 8720.48 1114.58 8725.75 1100.44H8974.51C8965.95 1153.07 8945.71 1198.8 8913.8 1237.61C8881.88 1276.1 8839.6 1306.04 8786.95 1327.42C8734.63 1348.47 8673.43 1359 8603.34 1359Z" fill="#DEE2ED"/>
<path d="M9085.68 1345.18V587.254H9350.24V731.34H9358.14C9371.96 678.048 9393.84 639.066 9423.78 614.393C9454.05 589.721 9489.43 577.385 9529.9 577.385C9541.75 577.385 9553.43 578.372 9564.94 580.346C9576.79 581.991 9588.14 584.458 9599 587.747V820.159C9585.51 815.554 9568.89 812.1 9549.15 809.797C9529.41 807.494 9512.46 806.343 9498.31 806.343C9471.66 806.343 9447.64 812.429 9426.25 824.6C9405.19 836.443 9388.57 853.22 9376.4 874.932C9364.22 896.314 9358.14 921.48 9358.14 950.429V1345.18H9085.68Z" fill="#DEE2ED"/>
</svg>
